<svg xmlns="http://www.w3.org/2000/svg" viewBox="0 0 195 67" width="195" height="67">
	<defs>
		<clipPath clipPathUnits="userSpaceOnUse" id="cp1">
			<path d="M0 0L195 0L195 67L0 67Z" />
		</clipPath>
	</defs>
	<style>
		tspan { white-space:pre }
		.shp0 { fill: #000000 } 
	</style>
	<g id="Page 1" clip-path="url(#cp1)">
		<path id="Path 1" class="shp0" d="M15.94 63.74L15.55 63.64L15.36 63.54C15.42 63.54 15.31 63.66 15.02 63.88C14.74 64.11 14.4 64.35 14.02 64.6C13.63 64.86 13.25 65.1 12.86 65.32C12.48 65.54 12.16 65.66 11.9 65.66C11.97 65.66 11.6 65.54 10.8 65.32C10 65.1 9.09 64.74 8.06 64.26C7.04 63.78 6.11 63.19 5.28 62.49C4.45 61.78 4.03 60.92 4.03 59.9L4.51 57.78C4.57 57.59 4.54 57.27 4.42 56.82C4.29 56.38 4.22 55.99 4.22 55.67C4.22 50.49 4.61 45.02 5.38 39.26C5.44 38.55 5.54 36.49 5.66 33.06C5.79 29.64 5.95 24.89 6.14 18.81L6.34 12.47C6.34 12.22 6.18 11.96 5.86 11.7C5.54 11.45 5.15 11.32 4.7 11.32L1.44 11.32C0.99 11.32 0.77 11.19 0.77 10.94C0.77 10.68 0.9 10.38 1.15 10.02C1.41 9.67 1.54 9.37 1.54 9.11C1.54 9.05 1.46 8.84 1.3 8.49C1.14 8.14 0.96 7.75 0.77 7.34C0.58 6.92 0.4 6.5 0.24 6.09C0.08 5.67 0 5.34 0 5.08L0.19 3.64C0.32 2.62 0.4 1.85 0.43 1.34C0.46 0.82 0.8 0.57 1.44 0.57C1.76 0.57 2.34 0.71 3.17 1C4 1.29 4.86 1.43 5.76 1.43C6.53 1.43 7.36 1.42 8.26 1.38C9.15 1.35 10.11 1.3 11.14 1.24C14.34 1.05 16.32 0.95 17.09 0.95C18.3 0.95 19.73 0.81 21.36 0.52C22.99 0.23 24.64 0.09 26.3 0.09C26.94 0.09 27.65 0.14 28.42 0.23C29.18 0.33 29.7 0.38 29.95 0.38L31.49 0.38C32.13 0.38 32.53 0.74 32.69 1.48C32.85 2.22 32.89 3 32.83 3.83C32.77 4.66 32.65 5.42 32.5 6.09C32.34 6.76 32.26 7.06 32.26 7C32.26 7.26 32.45 7.62 32.83 8.1C33.22 8.58 33.41 9.08 33.41 9.59C33.41 9.98 33.33 10.23 33.17 10.36C33.01 10.49 32.58 10.81 31.87 11.32L31.3 11.99C30.98 11.54 30.42 11.24 29.62 11.08C28.81 10.92 27.26 10.84 24.96 10.84L16.9 12.47L17.38 14.58C17.44 14.71 17.38 14.9 17.18 15.16C16.99 15.42 16.9 15.99 16.9 16.89C16.9 17.08 16.85 17.66 16.75 18.62C16.66 19.58 16.54 20.65 16.42 21.83C16.29 23.02 16.18 24.15 16.08 25.24C15.98 26.33 15.94 27.06 15.94 27.45C15.94 27.64 16 27.93 16.13 28.31L15.94 28.98C15.87 29.24 16.51 29.37 17.86 29.37C18.18 29.37 18.88 29.24 19.97 28.98L23.33 28.79L26.11 28.22L27.65 28.41L28.99 28.22C29.5 28.09 29.86 28.15 30.05 28.41C30.24 28.66 30.46 29.24 30.72 30.14L30.91 30.81L30.62 31.67C30.56 31.8 30.59 31.98 30.72 32.2C30.85 32.42 30.91 32.5 30.91 32.44C30.91 32.7 30.72 33.18 30.34 33.88C29.95 34.58 29.76 35.19 29.76 35.7C29.76 35.96 30.02 36.44 30.53 37.14C31.04 37.85 31.3 38.39 31.3 38.78C31.3 39.03 31.17 39.29 30.91 39.54C30.66 39.8 30.4 39.93 30.14 39.93C29.82 39.93 29.36 39.8 28.75 39.54C28.14 39.29 27.52 39.16 26.88 39.16C24.45 39.16 22.43 39.35 20.83 39.74C19.87 40.06 19.2 40.22 18.82 40.22L15.74 40.12C15.36 40.12 15.17 40.86 15.17 42.33L15.17 45.98C15.17 46.49 15.15 46.97 15.12 47.42C15.09 47.86 15.07 48.28 15.07 48.66C15.07 50.39 15.12 52.07 15.22 53.7C15.31 55.34 15.42 56.89 15.55 58.36C15.68 59.45 15.94 60.22 16.32 60.66C16.7 61.11 16.9 61.75 16.9 62.58C16.9 63.35 16.57 63.74 15.94 63.74ZM42.71 17.85L41.08 18.04C40.63 18.1 40.1 17.94 39.49 17.56C38.88 17.18 38.31 16.68 37.77 16.07C37.22 15.46 36.77 14.84 36.42 14.2C36.07 13.56 35.89 12.98 35.89 12.47C35.89 9.46 37.59 7.38 40.98 6.23L42.42 6.52C44.28 6.84 45.56 7.53 46.26 8.58C46.96 9.64 47.32 11 47.32 12.66C47.32 13.37 47.13 14.02 46.74 14.63C46.36 15.24 45.93 15.78 45.45 16.26C44.97 16.74 44.37 17.27 43.67 17.85L42.71 17.85ZM44.05 60.95L42.71 60.86L41.27 61.05C40.5 61.18 39.7 60.86 38.87 60.09C38.04 59.32 37.3 58.38 36.66 57.26C36.02 56.14 35.49 54.95 35.08 53.7C34.66 52.46 34.45 51.38 34.45 50.49C34.45 49.85 34.49 49 34.55 47.94C34.61 46.89 34.68 45.85 34.74 44.82C34.8 43.8 34.87 42.86 34.93 41.99C35 41.13 35.03 40.57 35.03 40.31C35.03 39.16 35.19 37.94 35.51 36.66C35.83 35.38 36.1 34.15 36.33 32.97C36.55 31.78 36.65 30.66 36.61 29.61C36.58 28.55 36.18 27.7 35.41 27.06L35.61 26.58L35.61 25.91C35.61 25.72 35.78 25.48 36.13 25.19C36.48 24.9 36.76 24.79 36.95 24.86L38.1 24.95C38.61 24.63 39.19 24.36 39.83 24.14C40.47 23.91 41.37 23.8 42.52 23.8C42.58 23.8 42.89 23.96 43.43 24.28C43.97 24.6 44.55 24.98 45.16 25.43C45.77 25.88 46.31 26.36 46.79 26.87C47.27 27.38 47.51 27.83 47.51 28.22C47.51 28.47 47.33 29.18 46.98 30.33C46.63 31.48 46.23 32.92 45.78 34.65C45.33 36.38 44.93 38.33 44.58 40.5C44.23 42.68 44.05 44.92 44.05 47.22C44.05 51.58 44.92 53.75 46.65 53.75C47.61 53.69 48.45 53.13 49.19 52.07C49.92 51.02 50.57 50.04 51.11 49.14C51.65 48.25 52.07 47.75 52.36 47.66C52.65 47.56 52.79 48.47 52.79 50.39L52.89 52.98C52.89 53.11 52.63 53.62 52.12 54.52L51.73 55.29L50.39 56.73L49.53 57.4L47.7 59.13L46.74 59.7C45.53 60.54 44.63 60.95 44.05 60.95ZM59.72 36.86C59.53 37.37 59.22 38.66 58.81 40.74C58.39 42.82 57.86 45.02 57.22 47.32C56.58 49.62 55.9 51.69 55.16 53.51C54.42 55.34 53.64 56.25 52.81 56.25C52.55 56.25 52.42 56.02 52.42 55.58C52.42 55.38 52.46 55.05 52.52 54.57C52.58 54.09 52.62 53.62 52.62 53.18L52.62 50.1C52.62 49.4 52.74 48.57 53 47.61C53.19 47.03 53.38 46.17 53.58 45.02C53.77 43.86 53.93 42.73 54.06 41.61C54.18 40.49 54.3 39.56 54.39 38.82C54.49 38.09 54.54 37.82 54.54 38.01C54.54 37.82 54.44 37.48 54.25 37C54.06 36.52 53.86 35.99 53.67 35.42C53.48 34.84 53.29 34.28 53.1 33.74C52.9 33.19 52.81 32.82 52.81 32.63L53.1 27.06L53.38 23.51L53.29 22.55C53.29 22.36 53.34 22.22 53.43 22.12C53.53 22.02 53.83 21.82 54.34 21.5L55.5 20.44C55.94 20.06 56.41 19.78 56.89 19.62C57.37 19.46 57.54 19.38 57.42 19.38C58.7 19.38 59.61 19.67 60.15 20.25C60.7 20.82 60.97 21.43 60.97 22.07C60.97 22.65 60.82 23.22 60.54 23.8C60.25 24.38 60.1 25.62 60.1 27.54L60.1 28.22C60.1 28.54 60.42 28.7 61.06 28.7C62.09 28.7 63.13 28.44 64.18 27.93C65.24 27.42 66.06 26.81 66.63 26.1C67.02 25.53 67.4 25.23 67.78 25.19C68.17 25.16 68.62 25.27 69.13 25.53C69.64 25.78 70.25 26.12 70.95 26.54C71.66 26.95 72.52 27.32 73.54 27.64C74.31 27.9 74.73 28.44 74.79 29.27C74.86 30.1 74.74 31.06 74.46 32.15C74.17 33.24 73.82 34.36 73.4 35.51C72.98 36.66 72.68 37.66 72.49 38.49L72.49 39.83C72.49 41.43 72.28 43.13 71.86 44.92C71.45 46.71 71.24 48.44 71.24 50.1C71.24 52.22 71.46 53.61 71.91 54.28C72.36 54.95 73.42 55.35 75.08 55.48L76.04 55.67C76.3 55.67 76.62 55.38 77 54.81C77.38 54.23 77.8 53.58 78.25 52.84C78.7 52.11 79.11 51.45 79.5 50.87C79.88 50.3 80.2 50.01 80.46 50.01C80.71 50.01 80.84 50.33 80.84 50.97L80.84 53.18C80.84 54.71 80.79 55.66 80.7 56.01C80.6 56.36 80.3 56.86 79.78 57.5C78.18 59.35 76.47 60.98 74.65 62.39C72.82 63.8 71.5 64.5 70.66 64.5C69 64.5 67.48 63.99 66.1 62.97C64.73 61.94 63.66 60.79 62.89 59.51C61.93 57.85 61.45 56.44 61.45 55.29C61.45 52.86 61.51 50.97 61.64 49.62C61.77 48.28 61.96 46.87 62.22 45.4L63.37 39.35C63.5 38.84 63.59 38.44 63.66 38.15C63.72 37.86 63.75 37.69 63.75 37.62C63.75 37.37 63.61 37.05 63.32 36.66C63.03 36.28 62.76 36.09 62.5 36.09C62.25 36.09 61.88 36.22 61.4 36.47C60.92 36.73 60.36 36.86 59.72 36.86ZM97.1 41.08C96.78 42.04 96.4 42.84 95.95 43.48L93.93 50.3C93.1 53.37 92.22 55.8 91.29 57.59C90.37 59.38 89.9 61.3 89.9 63.35C89.9 63.48 89.93 63.77 90 64.22C90.06 64.66 90.09 64.95 90.09 65.08C90.09 65.98 89.84 66.52 89.33 66.71C88.81 66.9 88.08 67 87.12 67C86.16 67 85.52 66.92 85.2 66.76C84.88 66.6 84.46 66.04 83.95 65.08L82.89 65.08C82.32 65.08 81.85 64.54 81.5 63.45C81.15 62.36 80.97 60.92 80.97 59.13C80.97 55.42 81.01 52.38 81.07 50.01C81.13 47.64 81.23 45.98 81.36 45.02C81.61 42.9 81.81 41.29 81.93 40.17C82.06 39.05 82.13 38.39 82.13 38.2L81.93 33.02C81.87 32.25 81.9 31.67 82.03 31.29C82.16 30.9 82.22 30.65 82.22 30.52C82.22 30.27 82.11 29.9 81.89 29.42C81.66 28.94 81.55 28.73 81.55 28.79C81.55 27.71 81.97 26.98 82.8 26.63C83.63 26.28 84.4 26.1 85.1 26.1L85.77 25.91L86.54 26.3L88.27 26.2C88.33 26.2 88.59 26.3 89.04 26.49C89.48 26.68 89.97 26.94 90.48 27.26C90.99 27.58 91.45 27.94 91.87 28.36C92.29 28.78 92.49 29.18 92.49 29.56C92.24 29.88 91.95 30.49 91.63 31.38C91.31 32.28 91.12 33.43 91.05 34.84L90.57 41.66C90.38 44.22 90.16 46.33 89.9 47.99C89.65 49.66 89.48 50.81 89.42 51.45C89.81 50.49 90.32 49.13 90.96 47.37C91.6 45.61 92.25 43.83 92.93 42.04C93.6 40.25 94.21 38.58 94.75 37.05C95.29 35.51 95.63 34.46 95.76 33.88C96.27 31.77 96.65 30.5 96.91 30.09C97.17 29.67 97.84 29.37 98.93 29.18C98.99 29.18 99.39 28.98 100.13 28.6C100.86 28.22 101.45 28.02 101.9 28.02L103.44 28.98C104.91 29.88 105.66 30.38 105.69 30.47C105.73 30.57 105.74 30.97 105.74 31.67C105.74 31.74 105.85 31.98 106.08 32.39C106.3 32.81 106.41 33.21 106.41 33.59C106.41 33.98 106.38 34.23 106.32 34.36C105.74 37.3 105.29 40.09 104.97 42.71C104.65 45.34 104.49 47.8 104.49 50.1C104.94 49.08 105.9 46.33 107.37 41.85C108.21 39.42 108.86 37.53 109.34 36.18C109.82 34.84 110.21 33.72 110.49 32.82C110.78 31.93 111.01 31.11 111.17 30.38C111.32 29.64 111.5 28.73 111.69 27.64C111.89 26.62 112.09 25.95 112.32 25.62C112.54 25.3 112.65 24.7 112.65 23.8C112.65 23.54 112.69 23.42 112.75 23.42L114.38 23.8C114.77 23.54 115.23 23.37 115.77 23.27C116.32 23.18 117.65 22.97 119.76 22.65C120.14 22.71 120.43 22.84 120.62 23.03C120.81 23.22 121.36 23.9 122.25 25.05L123.02 26.01L123.31 26.87C123.44 27.38 123.6 27.74 123.79 27.93C123.98 28.12 124.08 28.28 124.08 28.41C124.08 29.11 123.66 29.88 122.83 30.71C122.83 30.46 122.67 31.03 122.35 32.44C122.03 33.85 121.68 35.53 121.29 37.48C120.91 39.43 120.57 41.35 120.29 43.24C120 45.13 119.85 46.42 119.85 47.13C119.85 49.37 120.17 51.22 120.81 52.7C121.45 54.17 122.32 54.9 123.41 54.9C123.73 54.9 124.13 54.65 124.61 54.14C125.09 53.62 125.58 53.07 126.09 52.46C126.61 51.85 127.1 51.29 127.58 50.78C128.06 50.26 128.46 50.01 128.78 50.01C129.1 50.01 129.26 50.17 129.26 50.49L129.17 51.74C129.1 52.63 129.07 53.31 129.07 53.75L129.07 54.76C129.07 54.99 129.04 55.16 128.97 55.29C128.91 55.42 128.78 55.64 128.59 55.96C128.46 56.09 128.08 56.52 127.44 57.26C126.8 57.99 125.97 58.78 124.94 59.61C123.92 60.44 122.8 61.18 121.58 61.82C120.37 62.46 119.15 62.78 117.93 62.78C116.72 62.78 115.68 62.38 114.81 61.58C113.95 60.78 113.23 59.77 112.65 58.55C112.08 57.34 111.66 56.02 111.41 54.62C111.15 53.21 111.02 51.9 111.02 50.68C111.02 50.04 111.09 49.26 111.21 48.33C111.34 47.4 111.47 46.5 111.6 45.64C111.73 44.78 111.84 44.01 111.93 43.34C112.03 42.66 112.08 42.27 112.08 42.14C112.08 42.07 112.06 41.9 112.03 41.61C112 41.32 111.95 40.95 111.89 40.5C111.12 42.04 110.54 43.23 110.16 44.06C109.77 44.89 109.45 45.71 109.2 46.5C108.94 47.31 108.67 48.25 108.38 49.34C108.09 50.42 107.63 52.02 106.99 54.14C106.48 55.86 106.06 57.26 105.74 58.31C105.42 59.37 105.26 60.15 105.26 60.66L105.36 63.64L104.69 64.89L104.69 65.46C104.69 65.91 104.46 66.14 104.01 66.14C104.53 66.14 104.4 66.07 103.63 65.94C102.86 65.82 101.92 65.51 100.8 65.03C99.68 64.55 98.6 63.85 97.58 62.92C96.56 61.99 96.05 60.73 96.05 59.13C96.05 57.72 96.11 56.12 96.24 54.33C96.37 52.54 96.49 50.82 96.62 49.19C96.75 47.56 96.88 46.12 97.01 44.87C97.13 43.62 97.2 42.87 97.2 42.62L97.2 42.04C97.2 41.79 97.17 41.46 97.1 41.08Z" />
		<path id="Path 2" fill-rule="evenodd" class="shp0" d="M146.06 56.06C145.8 56.44 145.37 57.18 144.77 58.26C144.16 59.35 143.45 60.47 142.65 61.62C141.85 62.78 140.94 63.8 139.92 64.7C138.89 65.59 137.87 66.04 136.85 66.04C134.29 66.04 132.27 64.76 130.8 62.2C129.32 59.64 128.59 56.73 128.59 53.46C128.59 51.48 128.78 49.14 129.17 46.46C129.55 43.77 130.06 40.76 130.7 37.43C130.89 36.47 131.42 34.9 132.29 32.73C133.15 30.55 134.3 28.6 135.74 26.87C137.18 25.14 138.88 24.04 140.83 23.56C142.78 23.08 144.97 24.06 147.41 26.49C147.72 26.81 148.01 26.97 148.27 26.97C148.46 26.97 149.05 27.03 150.05 27.16C151.04 27.29 152.09 27.53 153.21 27.88C154.33 28.23 155.34 28.7 156.24 29.27C157.13 29.85 157.58 30.58 157.58 31.48C157.58 31.61 157.45 31.91 157.2 32.39C156.94 32.87 156.81 33.18 156.81 33.3L156.81 35.13C156.81 36.41 156.4 38.3 155.57 40.79C154.73 43.29 154.32 46.01 154.32 48.95C154.32 50.23 154.56 51.59 155.04 53.03C155.52 54.47 156.17 55.19 157.01 55.19C157.58 55.19 158.25 54.78 159.02 53.94C159.79 53.11 160.51 52.2 161.18 51.21C161.85 50.22 162.43 49.3 162.91 48.47C163.39 47.64 163.66 47.22 163.73 47.22C163.98 47.22 164.11 47.42 164.11 47.8C164.11 48.06 164.08 48.42 164.01 48.9C163.95 49.38 163.92 49.85 163.92 50.3C163.92 50.62 163.93 50.98 163.97 51.4C164 51.82 164.01 52.09 164.01 52.22C164.01 52.54 163.76 53.22 163.25 54.28C162.73 55.34 161.98 56.44 160.99 57.59C160 58.74 158.8 59.77 157.39 60.66C155.98 61.56 154.38 62.01 152.59 62.01C151.69 61.82 150.62 61.34 149.37 60.57C148.13 59.8 147.02 58.3 146.06 56.06ZM144.33 29.56C144.08 29.56 143.61 30.28 142.94 31.72C142.27 33.16 141.56 34.97 140.83 37.14C140.09 39.32 139.44 41.72 138.86 44.34C138.29 46.97 138 49.43 138 51.74C138 52.95 138.17 54.3 138.53 55.77C138.88 57.24 139.4 57.98 140.11 57.98C141.2 56.57 142.04 55.34 142.65 54.28C143.26 53.22 143.82 52.06 144.33 50.78C144.84 49.5 145.1 48.28 145.1 47.13L145.49 45.98L145.58 44.06C145.64 43.1 145.88 41.8 146.3 40.17C146.72 38.54 147 36.94 147.17 35.37C147.32 33.8 147.25 32.44 146.93 31.29C146.6 30.14 145.74 29.56 144.33 29.56ZM191.31 64.5C190.98 64.5 190.02 64.7 188.43 65.08L186.41 64.7L184.87 64.5C184.3 64.38 183.82 64.28 183.43 64.22C183.05 64.15 182.76 64.12 182.57 64.12C181.99 64.12 181.27 64.18 180.41 64.31C179.55 64.44 178.7 64.57 177.87 64.7C177.03 64.83 176.3 64.95 175.66 65.08C175.02 65.21 174.63 65.27 174.51 65.27C173.48 65.27 172.33 65.08 171.05 64.7C170.41 64.5 169.85 64.38 169.37 64.31C168.89 64.25 168.51 64.09 168.22 63.83C167.93 63.58 167.72 63.18 167.59 62.63C167.47 62.09 167.43 61.24 167.5 60.09C167.5 59.58 167.24 59.24 166.73 59.08C166.22 58.92 165.96 58.42 165.96 57.59C165.96 57.66 166.57 56.62 167.79 54.47C169 52.33 170.39 49.83 171.96 46.98C173.53 44.14 175.05 41.31 176.52 38.49C177.99 35.67 178.98 33.66 179.5 32.44C180.39 30.39 181.19 28.59 181.9 27.02C182.6 25.45 183.19 23.96 183.67 22.55C184.15 21.15 184.52 19.72 184.78 18.28C185.03 16.84 185.16 15.26 185.16 13.53C185.16 12.7 184.89 11.77 184.35 10.74C183.8 9.72 183.05 9.21 182.09 9.21C181.83 9.21 181.27 9.8 180.41 10.98C179.55 12.17 178.65 13.64 177.72 15.4C176.79 17.16 175.96 19.1 175.23 21.21C174.49 23.32 174.12 25.27 174.12 27.06C174.12 27.19 174.18 27.42 174.31 27.74C174.44 28.06 174.51 28.28 174.51 28.41C174.51 28.54 174.31 28.84 173.93 29.32C173.55 29.8 173.29 30.04 173.16 30.04L171.24 29.94C171.05 29.94 170.71 30.07 170.23 30.33C169.75 30.59 169.42 30.71 169.23 30.71C168.9 30.71 168.54 30.44 168.12 29.9C167.7 29.35 167.31 28.74 166.92 28.07C166.54 27.4 166.2 26.75 165.91 26.1C165.63 25.46 165.48 25.05 165.48 24.86C165.48 24.79 165.53 24.47 165.63 23.9C165.72 23.32 165.93 22.55 166.25 21.59L168.17 15.83C168.68 14.23 169.02 13.05 169.18 12.28C169.34 11.51 169.47 10.9 169.56 10.46C169.66 10.01 169.77 9.59 169.9 9.21C170.03 8.82 170.31 8.19 170.76 7.29C170.95 6.84 171.03 6.5 171 6.28C170.97 6.06 170.95 5.88 170.95 5.75C170.95 5.63 171 5.51 171.1 5.42C171.19 5.32 171.5 5.18 172.01 4.98L172.59 4.6C172.84 4.79 173.16 4.98 173.55 5.18C174.95 4.79 176.14 4.5 177.1 4.31C178.06 4.12 179.02 3.93 179.98 3.74C180.94 3.54 181.64 3.45 182.09 3.45C184.33 3.45 186.06 3.77 187.27 4.41C189.9 5.43 191.79 6.78 192.94 8.44C194.09 10.11 194.67 12.31 194.67 15.06C194.67 22.3 192.75 28.83 188.91 34.65C188.33 35.61 187.95 36.31 187.75 36.76C187.56 37.21 187.39 37.66 187.23 38.1C187.06 38.55 186.83 39.11 186.51 39.78C186.18 40.46 185.58 41.5 184.68 42.9C182.89 45.78 181.47 48.18 180.41 50.1C179.35 52.02 178.83 53.5 178.83 54.52L178.83 55.58L180.46 55.1L183.24 55.48C183.95 55.61 185.02 55.5 186.46 55.14C187.9 54.79 189.87 54.62 192.36 54.62C192.87 54.62 193.13 54.9 193.13 55.48L193.13 56.82L193.32 57.78C193.45 58.3 193.61 58.95 193.8 59.75C193.99 60.55 194.09 61.3 194.09 62.01C194.09 63.03 193.88 63.71 193.47 64.02C193.05 64.35 192.33 64.5 191.31 64.5Z" />
	</g>
</svg>