<svg xmlns="http://www.w3.org/2000/svg" viewBox="0 0 687 102" width="687" height="102">
	<defs>
		<clipPath clipPathUnits="userSpaceOnUse" id="cp1">
			<path d="M0 0L687 0L687 102L0 102Z" />
		</clipPath>
	</defs>
	<style>
		tspan { white-space:pre }
		.shp0 { fill: #004686 } 
		.shp1 { fill: #579ddc } 
		.shp2 { fill: #ffffff } 
	</style>
	<g id="Page 1" clip-path="url(#cp1)">
		<path id="Path 1" class="shp0" d="M136.55 77.01C136.11 77.01 135.82 76.72 135.82 76.27L135.82 41.09C135.82 40.79 135.67 40.64 135.38 40.64L123.52 40.64C123.08 40.64 122.79 40.35 122.79 39.91L122.79 27.69C122.79 27.25 123.08 26.95 123.52 26.95L163.57 26.95C164.01 26.95 164.31 27.25 164.31 27.69L164.31 39.91C164.31 40.35 164.01 40.64 163.57 40.64L151.72 40.64C151.42 40.64 151.28 40.79 151.28 41.09L151.28 76.27C151.28 76.72 150.98 77.01 150.54 77.01L136.55 77.01ZM175.75 27.69C175.75 27.25 176.05 26.95 176.49 26.95L190.47 26.95C190.92 26.95 191.21 27.25 191.21 27.69L191.21 44.25C191.21 44.55 191.36 44.69 191.65 44.69L202.03 44.69C202.33 44.69 202.47 44.55 202.47 44.25L202.47 27.69C202.47 27.25 202.77 26.95 203.21 26.95L217.19 26.95C217.64 26.95 217.93 27.25 217.93 27.69L217.93 76.27C217.93 76.72 217.64 77.01 217.19 77.01L203.21 77.01C202.77 77.01 202.47 76.72 202.47 76.27L202.47 58.83C202.47 58.53 202.33 58.39 202.03 58.39L191.65 58.39C191.36 58.39 191.21 58.53 191.21 58.83L191.21 76.27C191.21 76.72 190.92 77.01 190.47 77.01L176.49 77.01C176.05 77.01 175.75 76.72 175.75 76.27L175.75 27.69ZM232.25 27.69C232.25 27.25 232.55 26.95 232.99 26.95L246.97 26.95C247.42 26.95 247.71 27.25 247.71 27.69L247.71 76.27C247.71 76.72 247.42 77.01 246.97 77.01L232.99 77.01C232.55 77.01 232.25 76.72 232.25 76.27L232.25 27.69ZM259.69 70.53C259.4 70.24 259.25 69.65 259.62 69.21L267.42 60C267.72 59.64 268.09 59.64 268.38 59.93C271.18 62.44 275.96 64.79 280.6 64.79C284.5 64.79 286.34 63.54 286.34 61.55C286.34 60.23 285.46 59.42 281.63 58.9L278.98 58.53C267.5 56.91 261.39 51.83 261.39 41.97C261.39 32.47 268.97 26.07 280.89 26.07C288.33 26.07 295.03 28.2 299.81 31.81C300.26 32.11 300.33 32.55 299.96 33.06L293.34 42.48C293.04 42.85 292.67 42.93 292.3 42.71C289.07 40.57 285.31 39.1 281.49 39.1C278.54 39.1 277.21 40.28 277.21 41.82C277.21 43.29 278.39 44.03 282 44.55L284.65 44.91C296.5 46.53 302.17 51.61 302.17 61.55C302.17 71.05 294.73 77.89 280.75 77.89C272.13 77.89 263.52 74.43 259.69 70.53ZM313.17 71.19C312.88 70.9 312.73 70.46 313.03 70.09L317.59 64.79C317.89 64.42 318.33 64.42 318.62 64.71C321.86 67.29 326.65 70.02 332.24 70.02C338.2 70.02 341.66 67 341.66 62.8C341.66 59.19 339.45 56.84 332.53 55.88L329.89 55.51C320.24 54.19 314.79 49.55 314.79 41.23C314.79 32.18 321.42 26.14 331.73 26.14C337.98 26.14 343.94 28.13 347.92 31.15C348.29 31.44 348.36 31.74 348.07 32.18L344.53 37.63C344.24 37.99 343.87 38.07 343.5 37.85C339.45 35.19 335.7 33.94 331.5 33.94C326.42 33.94 323.63 36.74 323.63 40.64C323.63 44.1 326.06 46.46 332.83 47.42L335.48 47.78C345.12 49.11 350.42 53.67 350.42 62.29C350.42 71.19 344.02 77.82 331.58 77.82C324.21 77.82 317.08 74.87 313.17 71.19ZM366.14 27.69C366.14 27.25 366.43 26.95 366.87 26.95L374.09 26.95C374.53 26.95 374.82 27.25 374.82 27.69L374.82 76.27C374.82 76.72 374.53 77.01 374.09 77.01L366.87 77.01C366.43 77.01 366.14 76.72 366.14 76.27L366.14 27.69ZM404.73 77.01C404.29 77.01 404 76.72 404 76.27L404 35.2C404 34.9 403.85 34.76 403.55 34.76L390.45 34.76C390.01 34.76 389.71 34.46 389.71 34.02L389.71 27.69C389.71 27.25 390.01 26.95 390.45 26.95L426.23 26.95C426.67 26.95 426.96 27.25 426.96 27.69L426.96 34.02C426.96 34.46 426.67 34.76 426.23 34.76L413.12 34.76C412.83 34.76 412.68 34.9 412.68 35.2L412.68 76.27C412.68 76.72 412.39 77.01 411.95 77.01L404.73 77.01ZM441.94 27.69C441.94 27.25 442.23 26.95 442.68 26.95L474.03 26.95C474.48 26.95 474.77 27.25 474.77 27.69L474.77 34.02C474.77 34.46 474.48 34.75 474.03 34.75L451.07 34.75C450.78 34.75 450.63 34.9 450.63 35.2L450.63 47.42C450.63 47.71 450.78 47.86 451.07 47.86L470.43 47.86C470.87 47.86 471.17 48.15 471.17 48.6L471.17 54.92C471.17 55.37 470.87 55.66 470.43 55.66L451.07 55.66C450.78 55.66 450.63 55.81 450.63 56.1L450.63 68.76C450.63 69.06 450.78 69.21 451.07 69.21L474.03 69.21C474.48 69.21 474.77 69.5 474.77 69.94L474.77 76.27C474.77 76.72 474.48 77.01 474.03 77.01L442.68 77.01C442.23 77.01 441.94 76.72 441.94 76.27L441.94 27.69ZM505.65 77.01C505.21 77.01 504.92 76.72 504.92 76.27L504.92 29.53C504.92 29.23 504.77 29.09 504.47 29.09L489.53 29.09C489.09 29.09 488.79 28.79 488.79 28.35L488.79 27.69C488.79 27.25 489.09 26.95 489.53 26.95L522.58 26.95C523.02 26.95 523.32 27.25 523.32 27.69L523.32 28.35C523.32 28.79 523.02 29.09 522.58 29.09L507.64 29.09C507.34 29.09 507.2 29.23 507.2 29.53L507.2 76.27C507.2 76.72 506.9 77.01 506.46 77.01L505.65 77.01ZM540.42 27.69C540.42 27.25 540.71 26.95 541.16 26.95L541.96 26.95C542.41 26.95 542.7 27.25 542.7 27.69L542.7 76.27C542.7 76.72 542.41 77.01 541.96 77.01L541.16 77.01C540.71 77.01 540.42 76.72 540.42 76.27L540.42 27.69ZM576.54 77.01C576.1 77.01 575.81 76.72 575.81 76.27L575.81 29.53C575.81 29.23 575.66 29.09 575.36 29.09L560.42 29.09C559.98 29.09 559.68 28.79 559.68 28.35L559.68 27.69C559.68 27.25 559.98 26.95 560.42 26.95L593.47 26.95C593.91 26.95 594.21 27.25 594.21 27.69L594.21 28.35C594.21 28.79 593.91 29.09 593.47 29.09L578.53 29.09C578.23 29.09 578.09 29.23 578.09 29.53L578.09 76.27C578.09 76.72 577.79 77.01 577.35 77.01L576.54 77.01ZM611.31 27.69C611.31 27.25 611.61 26.95 612.05 26.95L612.86 26.95C613.3 26.95 613.59 27.25 613.59 27.69L613.59 74.43C613.59 74.73 613.74 74.88 614.03 74.88L639.58 74.88C640.02 74.88 640.32 75.17 640.32 75.61L640.32 76.27C640.32 76.72 640.02 77.01 639.58 77.01L612.05 77.01C611.61 77.01 611.31 76.72 611.31 76.27L611.31 27.69ZM657.64 27.69C657.64 27.25 657.93 26.95 658.37 26.95L685.9 26.95C686.35 26.95 686.64 27.25 686.64 27.69L686.64 28.35C686.64 28.79 686.35 29.09 685.9 29.09L660.36 29.09C660.07 29.09 659.92 29.23 659.92 29.53L659.92 50.07C659.92 50.36 660.07 50.51 660.36 50.51L682.45 50.51C682.89 50.51 683.18 50.8 683.18 51.24L683.18 51.91C683.18 52.35 682.89 52.64 682.45 52.64L660.36 52.64C660.07 52.64 659.92 52.79 659.92 53.08L659.92 74.43C659.92 74.73 660.07 74.88 660.36 74.88L685.9 74.88C686.35 74.88 686.64 75.17 686.64 75.61L686.64 76.27C686.64 76.72 686.35 77.01 685.9 77.01L658.37 77.01C657.93 77.01 657.64 76.72 657.64 76.27L657.64 27.69Z" />
		<path id="Path 2" class="shp1" d="M57.66 83.87L0 57.66L26.21 0L83.86 26.21L57.66 83.87Z" />
		<path id="Path 3" class="shp0" d="M44.78 102L0 57.22L44.78 12.43L89.57 57.22L44.78 102Z" />
		<path id="Path 4" class="shp2" d="M62.66 44.45C62.66 41.63 60.37 39.34 57.55 39.34C54.72 39.34 52.43 41.63 52.43 44.45C52.43 47.28 54.72 49.57 57.55 49.57C60.37 49.57 62.66 47.28 62.66 44.45Z" />
	</g>
</svg>