<svg xmlns="http://www.w3.org/2000/svg" viewBox="0 0 23 26" width="23" height="26">
	<style>
		tspan { white-space:pre }
		.shp0 { fill: #cacaca } 
	</style>
	<path id="Shape 2 copy" class="shp0" d="M18.62 22.49C17.61 22.49 16.79 21.66 16.79 20.65C16.79 19.64 17.61 18.81 18.62 18.81C19.64 18.81 20.46 19.64 20.46 20.65C20.46 21.66 19.64 22.49 18.62 22.49M5.38 14.84C4.36 14.84 3.54 14.02 3.54 13C3.54 11.99 4.36 11.16 5.38 11.16C6.39 11.16 7.21 11.99 7.21 13C7.21 14.02 6.39 14.84 5.38 14.84M18.62 7.19C17.61 7.19 16.79 6.37 16.79 5.35C16.79 4.34 17.61 3.52 18.62 3.52C19.64 3.52 20.46 4.34 20.46 5.35C20.46 6.37 19.64 7.19 18.62 7.19M18.62 1.98C16.76 1.98 15.25 3.49 15.25 5.35C15.25 5.69 15.31 6.02 15.41 6.32L7.83 10.7C7.21 10.04 6.35 9.63 5.38 9.63C3.51 9.63 2 11.14 2 13C2 14.87 3.51 16.38 5.38 16.38C6.35 16.38 7.21 15.97 7.83 15.31L15.41 19.68C15.31 19.99 15.25 20.31 15.25 20.65C15.25 22.51 16.76 24.03 18.62 24.03C20.48 24.03 22 22.51 22 20.65C22 18.79 20.48 17.27 18.62 17.27C17.65 17.27 16.79 17.69 16.17 18.35L8.59 13.97C8.69 13.66 8.75 13.34 8.75 13C8.75 12.67 8.69 12.34 8.59 12.03L16.17 7.66C16.79 8.32 17.65 8.73 18.62 8.73C20.48 8.73 22 7.22 22 5.35C22 3.49 20.48 1.98 18.62 1.98" />
</svg>