<svg xmlns="http://www.w3.org/2000/svg" viewBox="0 0 347 275" width="347" height="275">
	<defs>
		<clipPath clipPathUnits="userSpaceOnUse" id="cp1">
			<path d="M0 0L347 0L347 275L0 275Z" />
		</clipPath>
	</defs>
	<style>
		tspan { white-space:pre }
		.shp0 { fill: #273642 } 
		.shp1 { fill: #ffffff } 
	</style>
	<g id="Page 1" clip-path="url(#cp1)">
		<path id="Path 1" class="shp0" d="M173.33 0.5L169.67 85.56L154.21 1.84L162.42 86.58L135.45 5.82L155.38 88.59L117.44 12.38L148.69 91.57L100.51 21.38L142.48 95.45L85 32.65L136.87 100.16L71.21 45.97L131.97 105.6L59.41 61.08L127.88 111.67L49.82 77.68L124.67 118.25L42.64 95.45L122.4 125.22L38 114.05L121.13 132.43L36 133.12L120.88 139.75L36.67 152.28L121.64 147.03L40 171.16L123.41 154.14L45.92 189.4L126.16 160.93L54.33 206.63L129.82 167.27L65.05 222.52L134.33 173.04L77.87 236.77L139.59 178.13L92.56 249.09L145.52 182.43L108.82 259.25L151.98 185.87L126.33 267.05L158.87 188.37L144.76 272.33L166.03 189.9L163.75 275L173.33 190.41L182.92 275L180.64 189.9L201.9 272.33L187.8 188.37L220.33 267.05L194.68 185.87L237.85 259.25L201.15 182.43L254.1 249.09L207.07 178.13L268.79 236.77L212.34 173.04L281.62 222.52L216.85 167.27L292.34 206.63L220.51 160.93L300.74 189.4L223.25 154.14L306.67 171.16L225.02 147.03L310 152.28L225.79 139.75L310.67 133.12L225.53 132.43L308.66 114.05L224.26 125.22L304.02 95.45L222 118.25L296.84 77.68L218.79 111.67L287.26 61.08L214.69 105.6L275.45 45.97L209.79 100.16L261.66 32.65L204.18 95.45L246.15 21.38L197.97 91.57L229.23 12.38L191.29 88.59L211.21 5.82L184.25 86.58L192.46 1.84L176.99 85.56L173.33 0.5ZM128.03 235.41L6 179.94L6 96.44L128.03 40.97L218.63 40.97L340.67 96.44L340.67 179.94L218.63 235.41L128.03 235.41Z" />
		<path id="Path 2" fill-rule="evenodd" class="shp0" d="M219.93 34.97L222.3 36.05L339.63 89.38L346.67 92.58L346.67 183.8L339.63 187L222.3 240.33L219.93 241.41L126.73 241.41L124.37 240.33L7.03 187L0 183.8L0 92.58L7.03 89.38L124.37 36.05L126.73 34.97L219.93 34.97Z" />
		<path id="Path 3" fill-rule="evenodd" class="shp1" d="M220.64 39.69L337.98 93.02L342.67 95.15L342.67 181.23L337.98 183.36L220.64 236.69L219.07 237.41L127.6 237.41L126.02 236.69L8.69 183.36L4 181.23L4 95.15L8.69 93.02L126.02 39.69L127.6 38.97L219.07 38.97L220.64 39.69ZM129.33 46.97L12 100.31L12 176.07L129.33 229.41L217.33 229.41L334.67 176.07L334.67 100.31L217.33 46.97L129.33 46.97Z" />
	</g>
</svg>