<svg xmlns="http://www.w3.org/2000/svg" viewBox="0 0 372 277" width="372" height="277">
	<defs>
		<clipPath clipPathUnits="userSpaceOnUse" id="cp1">
			<path d="M0 0L372 0L372 277L0 277Z" />
		</clipPath>
	</defs>
	<style>
		tspan { white-space:pre }
		.shp0 { fill: #273642 } 
		.shp1 { fill: #ffffff } 
	</style>
	<g id="Page 1" clip-path="url(#cp1)">
		<path id="Path 1" class="shp0" d="M185.97 271C112.82 271 53.3 211.49 53.3 138.33C53.3 65.18 112.82 5.67 185.97 5.67C259.12 5.67 318.64 65.18 318.64 138.33C318.64 211.49 259.12 271 185.97 271Z" />
		<path id="Path 2" fill-rule="evenodd" class="shp0" d="M324.63 138.33C324.63 214.79 262.43 277 185.97 277C109.51 277 47.3 214.79 47.3 138.33C47.3 61.87 109.51 -0.33 185.97 -0.33C262.43 -0.33 324.63 61.87 324.63 138.33Z" />
		<path id="Path 3" fill-rule="evenodd" class="shp1" d="M185.97 273C124.69 273 72.84 231.86 56.59 175.75L2 175.75L2 168.43L22.29 138.33L2 108.24L2 100.92L56.59 100.92C72.84 44.81 124.69 3.67 185.97 3.67C247.25 3.67 299.1 44.81 315.35 100.92L369.94 100.92L369.94 108.24L349.65 138.33L369.94 168.43L369.94 175.75L315.35 175.75C299.1 231.86 247.25 273 185.97 273ZM185.97 265C242.9 265 291.06 227.44 307.02 175.75L64.92 175.75C80.88 227.44 129.04 265 185.97 265ZM185.97 11.67C129.04 11.67 80.88 49.22 64.92 100.92L307.02 100.92C291.06 49.22 242.9 11.67 185.97 11.67Z" />
		<path id="Path 4" fill-rule="evenodd" class="shp0" d="M371.94 108.85L371.25 109.87L352.06 138.33L371.25 166.8L371.94 167.81L371.94 177.75L0 177.75L0 167.81L0.68 166.8L19.88 138.33L0.68 109.87L0 108.85L0 98.92L371.94 98.92L371.94 108.85ZM4 102.92L4 107.63L24.7 138.33L4 169.04L4 173.75L367.94 173.75L367.94 169.04L347.23 138.33L367.94 107.63L367.94 102.92L4 102.92Z" />
		<path id="Path 5" class="shp1" d="M185.97 203C150.31 203 121.3 173.99 121.3 138.33C121.3 102.68 150.31 73.67 185.97 73.67C221.63 73.67 250.64 102.68 250.64 138.33C250.64 173.99 221.63 203 185.97 203Z" />
		<path id="Path 6" fill-rule="evenodd" class="shp0" d="M252.63 138.33C252.63 175.09 222.73 205 185.97 205C149.21 205 119.3 175.09 119.3 138.33C119.3 101.57 149.21 71.67 185.97 71.67C222.73 71.67 252.63 101.57 252.63 138.33ZM123.3 138.33C123.3 172.94 151.36 201 185.97 201C220.58 201 248.63 172.94 248.63 138.33C248.63 103.72 220.58 75.67 185.97 75.67C151.36 75.67 123.3 103.72 123.3 138.33Z" />
	</g>
</svg>