<svg xmlns="http://www.w3.org/2000/svg" viewBox="0 0 243 281" width="243" height="281">
	<defs>
		<clipPath clipPathUnits="userSpaceOnUse" id="cp1">
			<path d="M0 0L243 0L243 281L0 281Z" />
		</clipPath>
	</defs>
	<style>
		tspan { white-space:pre }
		.shp0 { fill: #273642 } 
		.shp1 { fill: #ffffff } 
	</style>
	<g id="Page 1" clip-path="url(#cp1)">
		<path id="Path 1" class="shp0" d="M121.29 275C76.38 275 34.59 252.73 9.48 215.42L7.23 212.07L9.48 208.72C23.11 188.47 30.31 164.83 30.31 140.33C30.31 115.84 23.11 92.19 9.48 71.95L7.23 68.6L9.48 65.25C34.59 27.94 76.38 5.67 121.29 5.67C166.19 5.67 207.99 27.94 233.09 65.25L235.34 68.6L233.09 71.95C219.47 92.19 212.27 115.84 212.27 140.33C212.27 164.83 219.47 188.47 233.09 208.72L235.34 212.07L233.09 215.42C207.98 252.73 166.19 275 121.29 275Z" />
		<path id="Path 2" fill-rule="evenodd" class="shp0" d="M238.07 61.9L242.57 68.6L238.07 75.3C225.11 94.55 218.27 117.04 218.27 140.33C218.27 163.63 225.11 186.12 238.07 205.37L242.57 212.07L238.07 218.77C211.85 257.73 168.19 281 121.29 281C74.38 281 30.73 257.73 4.51 218.77L0 212.07L4.51 205.37C17.46 186.12 24.31 163.63 24.31 140.33C24.31 117.04 17.46 94.55 4.51 75.3L0 68.6L4.51 61.9C30.73 22.93 74.38 -0.33 121.29 -0.33C168.19 -0.33 211.85 22.93 238.07 61.9Z" />
		<path id="Path 3" fill-rule="evenodd" class="shp1" d="M234.75 64.13L237.75 68.6L234.75 73.06C221.35 92.98 214.27 116.24 214.27 140.33C214.27 164.43 221.35 187.69 234.75 207.6L237.75 212.07L234.75 216.53C209.27 254.4 166.86 277 121.29 277C75.72 277 33.3 254.4 7.83 216.53L4.82 212.07L7.83 207.6C21.22 187.69 28.31 164.43 28.31 140.33C28.31 116.24 21.22 92.98 7.83 73.06L4.82 68.6L7.83 64.13C33.3 26.27 75.72 3.67 121.29 3.67C166.86 3.67 209.27 26.27 234.75 64.13ZM14.46 68.6C28.25 89.09 36.31 113.77 36.31 140.33C36.31 166.89 28.25 191.57 14.46 212.07C37.57 246.41 76.79 269 121.29 269C165.79 269 205 246.41 228.11 212.07C214.32 191.57 206.27 166.89 206.27 140.33C206.27 113.77 214.32 89.09 228.11 68.6C205 34.26 165.79 11.67 121.29 11.67C76.79 11.67 37.57 34.26 14.46 68.6Z" />
	</g>
</svg>