<svg xmlns="http://www.w3.org/2000/svg" viewBox="0 0 312 258" width="312" height="258">
	<defs>
		<clipPath clipPathUnits="userSpaceOnUse" id="cp1">
			<path d="M0 0L312 0L312 258L0 258Z" />
		</clipPath>
	</defs>
	<style>
		tspan { white-space:pre }
		.shp0 { fill: #273642 } 
		.shp1 { fill: #ffffff } 
	</style>
	<g id="Page 1" clip-path="url(#cp1)">
		<path id="Path 1" class="shp0" d="M2 155.61L2 148.29L22.29 118.2L2 88.1L2 80.78L309.94 80.78L309.94 88.1L289.65 118.2L309.94 148.29L309.94 155.61L2 155.61Z" />
		<path id="Path 2" fill-rule="evenodd" class="shp1" d="M311.94 78.78L311.94 88.72L311.25 89.73L292.06 118.2L311.25 146.66L311.94 147.68L311.94 157.61L0 157.61L0 147.68L0.68 146.66L19.88 118.2L0.68 89.73L0 88.72L0 78.78L311.94 78.78ZM4 153.61L307.94 153.61L307.94 148.9L287.23 118.2L307.94 87.49L307.94 82.78L4 82.78L4 87.49L24.7 118.2L4 148.9L4 153.61Z" />
		<path id="Path 3" class="shp0" d="M90.95 202.88C86.57 199.67 82.47 196.03 78.77 192.06C63.64 175.85 55.31 154.71 55.31 132.54L55.31 27.54L155.97 6.46L256.63 27.54L256.63 132.54C256.63 154.71 248.3 175.85 233.17 192.06C229.47 196.03 225.37 199.67 220.99 202.88L155.97 250.56L90.95 202.88Z" />
		<path id="Path 4" fill-rule="evenodd" class="shp0" d="M158.43 0.85L253.09 20.67L262.63 22.67L262.63 132.54C262.63 156.24 253.72 178.83 237.55 196.15C233.59 200.4 229.21 204.29 224.53 207.72L163.06 252.8L155.97 258L148.87 252.8L87.4 207.72C82.72 204.29 78.34 200.4 74.38 196.15C58.21 178.83 49.31 156.24 49.31 132.54L49.31 22.67L58.85 20.67L153.51 0.85L155.97 0.33L158.43 0.85Z" />
		<path id="Path 5" fill-rule="evenodd" class="shp1" d="M157.61 4.76L252.27 24.59L258.63 25.92L258.63 132.54C258.63 155.22 250.1 176.84 234.63 193.42C230.84 197.48 226.65 201.21 222.17 204.49L160.7 249.57L155.97 253.04L151.24 249.57L89.77 204.49C85.29 201.21 81.1 197.48 77.31 193.42C61.83 176.84 53.31 155.22 53.31 132.54L53.31 25.92L59.67 24.59L154.33 4.76L155.97 4.42L157.61 4.76ZM61.31 32.42L61.31 132.54C61.31 153.12 69.12 172.92 83.15 187.96C86.61 191.67 90.41 195.04 94.5 198.04L155.97 243.12L217.44 198.04C221.52 195.04 225.32 191.67 228.78 187.96C242.82 172.92 250.63 153.12 250.63 132.54L250.63 32.42L155.97 12.59L61.31 32.42Z" />
		<path id="Path 6" class="shp0" d="M40.64 60.82L271.3 60.82L271.3 135.65L40.64 135.65L40.64 60.82Z" />
		<path id="Path 7" fill-rule="evenodd" class="shp1" d="M273.3 137.65L38.64 137.65L38.64 58.82L273.3 58.82L273.3 137.65ZM269.3 62.82L42.64 62.82L42.64 133.65L269.3 133.65L269.3 62.82Z" />
	</g>
</svg>