<svg xmlns="http://www.w3.org/2000/svg" viewBox="0 0 411 284" width="411" height="284">
	<defs>
		<clipPath clipPathUnits="userSpaceOnUse" id="cp1">
			<path d="M0 0L411 0L411 284L0 284Z" />
		</clipPath>
	</defs>
	<style>
		tspan { white-space:pre }
		.shp0 { fill: #ffffff } 
		.shp1 { fill: #273642 } 
		.shp2 { fill: none;stroke: #273642;stroke-width: 4 } 
	</style>
	<g id="Page 1" clip-path="url(#cp1)">
		<path id="Path 1" class="shp0" d="M24 272.43L33.6 237.43L4.75 215.4L2.47 208.64L385.03 35.22L387.44 42.36L377.83 77.36L406.68 99.38L408.96 106.14L26.41 279.57L24 272.43Z" />
		<path id="Path 2" fill-rule="evenodd" class="shp1" d="M386.22 32.48L387.63 36.68L389.14 41.14L389.53 42.3L389.2 43.48L380.12 76.59L407.41 97.42L408.38 98.17L408.77 99.32L410.28 103.79L411.43 107.22L408.14 108.71L330.81 143.77L330.81 215.52L204.74 277.32L123.77 237.62L29.24 280.48L25.22 282.3L23.8 278.11L22.3 273.65L21.91 272.49L22.23 271.31L31.32 238.2L4.03 217.36L3.05 216.62L2.66 215.46L1.16 211L0 207.57L3.3 206.08L78.68 171.9L78.68 5.68L330.81 5.68L330.81 57.6L382.19 34.31L386.22 32.48ZM27.59 276.83L119.12 235.34L78.68 215.52L78.68 176.29L4.95 209.72L6.45 214.18L35.89 236.66L26.09 272.37L27.59 276.83ZM406.49 105.07L404.98 100.6L375.55 78.13L385.35 42.42L383.84 37.95L330.81 62L330.81 139.38L406.49 105.07Z" />
		<path id="Path 3" fill-rule="evenodd" class="shp1" d="M336.81 -0.32L336.81 219.26L330.09 222.56L210.03 281.41L204.74 284L199.46 281.41L79.4 222.56L72.68 219.26L72.68 -0.32L336.81 -0.32Z" />
		<path id="Path 4" fill-rule="evenodd" class="shp0" d="M332.81 216.77L328.33 218.97L208.27 277.82L204.75 279.55L201.22 277.82L81.16 218.97L77.65 217.24L68.75 221.27L68.75 146.84L76.68 143.25L76.68 3.68L332.81 3.68L332.81 27.49L340.75 23.9L340.75 98.32L332.81 101.91L332.81 216.77ZM84.68 11.68L84.68 139.64L324.81 31.1L324.81 11.68L84.68 11.68ZM204.75 270.64L324.81 211.78L324.81 105.53L87.1 212.97L204.75 270.64Z" />
		<path id="Path 5" class="shp2" d="M68.75 221.27L340.75 98.32L340.75 23.9L68.75 146.84L68.75 221.27Z" />
	</g>
</svg>